<?xml version="1.0" standalone="no"?>
<!DOCTYPE svg PUBLIC "-//W3C//DTD SVG 20010904//EN"
 "http://www.w3.org/TR/2001/REC-SVG-20010904/DTD/svg10.dtd">
<svg version="1.0" xmlns="http://www.w3.org/2000/svg"
 width="200.000000pt" height="200.000000pt" viewBox="0 0 200.000000 200.000000"
 preserveAspectRatio="xMidYMid meet">
<metadata>
Created by potrace 1.10, written by Peter Selinger 2001-2011
</metadata>
<g transform="translate(0.000000,200.000000) scale(0.100000,-0.100000)"
fill="#ffffff" stroke="none">
<path d="M584 1219 c-14 -16 -15 -23 -6 -26 6 -3 12 -11 12 -19 0 -9 -4 -12
-10 -9 -5 3 -10 -1 -10 -9 0 -9 7 -16 15 -16 10 0 15 -11 15 -35 0 -28 4 -35
20 -35 16 0 20 7 20 35 0 24 5 35 14 35 8 0 17 8 19 18 3 9 5 -8 6 -38 l1 -55
55 3 c39 3 55 8 55 18 0 8 -3 14 -7 14 -5 0 -8 20 -8 45 0 25 3 45 8 45 12 0
8 20 -7 36 -18 17 -43 18 -49 2 -4 -10 -6 -10 -6 0 -1 6 -10 12 -21 12 -15 0
-20 -7 -20 -24 0 -27 -15 -42 -25 -26 -4 6 -2 17 5 25 8 10 8 15 -1 21 -7 4
-20 -3 -31 -17 -18 -23 -19 -23 -8 -1 14 30 -9 30 -36 1z m156 -38 c0 -10 -42
-23 -49 -16 -2 3 4 12 15 19 19 14 34 12 34 -3z m-2 -39 c2 -7 -3 -12 -12 -12
-9 0 -16 7 -16 16 0 17 22 14 28 -4z m-3 -32 c3 -5 -1 -10 -9 -10 -8 0 -18 5
-21 10 -3 6 1 10 9 10 8 0 18 -4 21 -10z"/>
<path d="M848 1233 c-52 -4 -64 -19 -20 -25 l27 -4 -25 -11 c-34 -15 -14 -22
80 -26 l75 -3 -82 -2 -83 -2 0 -45 c0 -38 3 -45 20 -45 11 0 20 7 20 15 0 12
12 15 53 14 29 0 44 -3 35 -7 -30 -12 -6 -32 27 -23 28 7 30 11 32 62 1 39 -3
57 -15 67 -14 11 -13 12 6 12 12 0 22 5 22 10 0 6 -12 10 -27 10 -16 0 -44 2
-63 4 -19 2 -56 1 -82 -1z m87 -33 c-3 -5 -15 -10 -26 -10 -10 0 -19 5 -19 10
0 6 12 10 26 10 14 0 23 -4 19 -10z m13 -67 c-15 -2 -42 -2 -60 0 -18 2 -6 4
27 4 33 0 48 -2 33 -4z m0 -20 c-15 -2 -42 -2 -60 0 -18 2 -6 4 27 4 33 0 48
-2 33 -4z"/>
<path d="M1110 1230 c0 -5 -18 -13 -41 -16 -29 -5 -39 -11 -35 -21 4 -8 6 -19
6 -23 0 -10 59 7 75 21 13 12 45 11 45 -1 0 -5 -7 -10 -15 -10 -10 0 -15 -11
-15 -35 0 -19 -4 -35 -10 -35 -5 0 -10 11 -10 25 0 18 -5 25 -20 25 -15 0 -20
-7 -20 -25 0 -16 -6 -25 -15 -25 -8 0 -15 -9 -15 -20 0 -19 7 -20 105 -20 98
0 105 1 105 20 0 17 -7 20 -40 20 -22 0 -40 5 -40 10 0 6 14 10 30 10 20 0 30
5 30 15 0 10 -10 15 -30 15 -16 0 -30 5 -30 10 0 13 21 13 54 0 23 -9 26 -7
26 14 0 20 -7 24 -40 30 -22 3 -40 11 -40 16 0 6 -13 10 -30 10 -16 0 -30 -4
-30 -10z"/>
<path d="M1289 1233 c-1 -5 -1 -11 0 -15 0 -5 -6 -8 -14 -8 -27 0 -15 -20 13
-21 l27 -1 -25 -8 c-21 -7 -18 -8 20 -11 45 -2 45 -2 8 -6 -21 -2 -38 -8 -38
-13 0 -5 17 -11 38 -13 l37 -4 -42 -1 c-53 -2 -57 -21 -5 -23 l37 -2 -37 -6
c-30 -5 -36 -9 -28 -21 7 -12 15 -13 40 -3 16 6 30 7 30 2 0 -13 34 -11 47 2
8 8 13 8 17 0 10 -16 53 -13 59 3 4 11 -4 16 -31 19 l-37 4 38 1 c52 3 46 22
-7 22 -30 0 -46 -5 -50 -15 -8 -22 -36 -7 -32 18 3 25 27 35 86 37 38 2 41 3
20 10 -24 8 -24 8 -2 9 26 1 30 21 5 21 -14 0 -15 2 -4 9 18 11 4 18 -41 19
-27 1 -38 -3 -41 -16 -4 -16 -5 -16 -6 1 -1 10 -9 17 -21 17 -12 0 -20 -7 -20
-17 -1 -17 -1 -17 -11 0 -10 17 -28 23 -30 10z m111 -49 c0 -2 -11 -4 -25 -4
-14 0 -25 4 -25 9 0 4 11 6 25 3 14 -2 25 -6 25 -8z"/>
<path d="M210 1180 c-21 -21 -29 -90 -10 -90 6 0 10 15 10 33 0 18 5 38 12 45
18 18 56 14 68 -7 6 -11 10 -89 10 -180 0 -101 4 -161 10 -161 6 0 10 20 10
45 l0 45 85 0 c73 0 85 2 85 17 0 12 -3 14 -11 6 -7 -7 -38 -9 -88 -6 -42 3
-77 7 -79 8 -11 9 15 35 37 36 25 1 25 2 -4 8 -17 3 -31 14 -33 24 -3 15 6 17
83 17 77 0 86 -2 83 -17 -3 -14 -14 -18 -51 -17 -27 0 -42 -3 -35 -8 7 -4 32
-8 56 -8 48 0 45 -7 42 130 -2 74 -18 100 -60 100 -37 0 -60 -29 -60 -75 0
-44 17 -37 22 9 4 36 31 55 55 40 13 -8 20 -29 23 -68 3 -32 3 -59 1 -62 -2
-2 -37 -4 -78 -4 l-73 0 0 51 c0 50 -12 87 -34 101 -20 14 -56 8 -76 -12z"/>
<path d="M1390 1150 c0 -5 18 -10 40 -10 22 0 40 5 40 10 0 6 -18 10 -40 10
-22 0 -40 -4 -40 -10z"/>
<path d="M577 1106 c-4 -15 -6 -31 -2 -34 10 -10 16 6 13 35 l-3 28 -8 -29z"/>
<path d="M650 1108 c0 -16 5 -28 10 -28 13 0 13 20 0 40 -8 12 -10 9 -10 -12z"/>
<path d="M507 973 c-10 -9 50 -43 76 -43 12 0 30 7 41 15 16 12 22 12 47 0 35
-19 48 -19 94 1 26 11 34 19 27 26 -7 7 -20 5 -41 -8 -29 -17 -31 -17 -65 1
-35 19 -37 19 -72 0 -33 -18 -37 -18 -64 -2 -32 19 -34 20 -43 10z"/>
<path d="M756 904 c-33 -16 -62 -18 -71 -4 -8 14 -51 13 -74 -2 -15 -9 -28 -9
-60 2 -32 10 -44 11 -53 2 -9 -9 -8 -12 4 -12 9 0 30 -8 47 -17 29 -17 32 -17
66 1 35 19 37 19 66 2 29 -17 32 -17 74 1 25 10 45 21 45 25 0 15 -18 16 -44
2z"/>
<path d="M414 876 c23 -18 36 -20 36 -6 0 6 -4 10 -9 10 -5 0 -18 3 -28 6 -16
5 -16 4 1 -10z"/>
<path d="M473 853 c-14 -38 -20 -39 -62 -16 -34 20 -54 10 -25 -12 33 -26 66
-29 97 -11 27 15 32 15 53 1 30 -19 58 -19 89 1 22 14 26 14 47 0 12 -9 30
-16 40 -16 21 0 87 32 88 43 0 12 -30 8 -56 -9 -23 -16 -27 -16 -59 2 -34 18
-36 18 -69 0 -32 -17 -35 -17 -66 -1 -17 9 -38 14 -45 11 -9 -3 -15 3 -17 17
-3 19 -5 18 -15 -10z"/>
</g>
</svg>
